<svg xmlns="http://www.w3.org/2000/svg" width="1244" height="262" fill="#fff" stroke="#000" stroke-width="7" xmlns:v="https://vecta.io/nano"><path d="M16.216 256.277c0-2.728 6.986-65.412 14.223-127.623l4-39.1c-.254-.4-1.577-.97-2.94-1.243-3.538-.707-6.845-3.58-10.753-9.343-3.624-5.343-8.96-15.44-8.96-16.952 0-.5 1.894-.934 4.2-.96 4.874-.058 10.12-1.67 10.642-3.273.253-.774-.822-1.108-3.567-1.108-5.607 0-11.236-4.27-16.92-12.834-4.006-6.037-4.112-5.964 13.4-9.255 31.524-5.927 66.576-15.946 93.276-26.66l10.55-4.227c1.258-.498 1.128 2.094-.443 8.882l-.564 2.434 8.04-1.102.528 3.877c.3 2.133 1.925 16.04 3.633 30.907l10.97 87.078c.6.66 8.72-1.643 10.084-2.864.386-.346-.294-11.758-1.5-25.36-2.902-32.412-4.507-55.162-3.933-55.736.253-.253 5.563-1.54 11.8-2.858l11.34-2.397 1.912 2.398c2.42 3.034 3.17 3.025 3.194-.04.024-2.997 2.712-9.086 4.76-10.78 1.305-1.08 1.676-1.08 2.68 0 .64.7 10.468 16.408 21.838 34.93l29.2 46.093c1.443.892.997-15.567-1.298-47.853l-1.792-30.468c.192-.192 2.428.986 4.97 2.618 3.624 2.325 4.708 2.685 5.018 1.665.815-2.682 11.437-12.127 16.135-14.348 5.372-2.54 14.48-5.12 18.068-5.12 2.3 0 2.3.056 2.3 6.868-.01 8.123-1.32 38.755-2.713 63.43-1.25 22.176-.914 22.94 4.132 9.37 5-13.45 11.285-22.844 24.74-36.984 12.424-13.056 24.647-21.08 40.6-26.653 9.137-3.192 21.9-6.56 22.506-5.943.236.236.166 1.984-.155 3.886-.546 3.23-1.722 5.517-5.527 10.75l-1.544 2.124 4.296-.644c2.363-.354 4.843-.854 5.512-1.1 1.005-.386 1.216 2.585 1.216 17.152v17.62l-6.87 2.523c-21.983 8.076-36.724 20.112-44.615 36.43-4.515 9.334-6.222 17.82-6.328 31.462-.077 9.744.145 11.53 1.844 14.832 3.094 6.015 7.34 7.77 18.746 7.75 9.906-.018 20.73-2.514 23.057-5.32.844-1.017 1-3.773.604-10.75-.292-5.16-.755-9.604-1.028-9.878s-3.705.83-7.627 2.448c-4.174 1.723-7.454 2.615-7.912 2.15-.43-.436-2.78-5.08-5.224-10.32l-4.443-9.526 2.616-1.353c1.44-.744 2.616-1.733 2.616-2.2s-1.895-1.8-4.2-3l-4.2-2.143 5.318-2.37c6.27-2.797 24.073-7.808 47.702-13.428l17.097-4.18c.057-.077.3-2.058.56-4.403l.46-4.263-14.124-9.456 4.505-2.53c2.478-1.392 4.505-2.73 4.506-2.975s-1.76-1.378-3.9-2.52-4.715-2.935-5.698-3.986c-2-2.14-8.116-12.05-8.116-13.154 0-.815 21.532-11.73 38.55-19.543 20.2-9.268 37.653-13.97 51.885-13.97 11.93 0 28.208 3.873 35.425 8.43 4.762 3.006 12.827 12.184 15.5 17.63 1.397 2.854 2.77 7.737 3.317 11.785.855 6.336 2.455 10.013 4.356 10.013.412 0 .75-1 .75-2.198 0-2.526 2.54-9.323 3.484-9.323.35 0 4.748 7.876 9.777 17.503 16.002 30.632 19.827 37.5 20.495 36.8.493-.518 13.142-54.2 15.67-66.488.225-1.097.68-1.994 1.008-1.994s2.34 1.775 4.47 3.945c3.634 3.702 3.862 4.225 3.7 8.5-.118 3.335.14 4.46.965 4.198 1.55-.5 6.443-9.716 8.707-16.42 1.03-3.046 2.065-5.54 2.304-5.54.933 0 17.8 11.54 21.362 14.616 2.075 1.792 4.8 5.025 6.075 7.185l2.3 3.927-1.56 6.412c-4 16.456-20.177 61.338-42.236 117.2l-16.358 41.653c-1.68 4.387-3.362 8.285-3.735 8.662-1.308 1.32-3.837-2.84-4.405-7.247l-.575-4.45-3.904 2.628c-5.057 3.403-9.798 4.635-14.976 3.9-4.328-.623-9.44-2.422-11.32-3.984-.84-.698 1.653-9.137 10.856-36.736l11.947-35.83-14.84-15.755c-8.162-8.664-18.4-20.24-22.775-25.724s-8.384-9.962-8.933-9.952-5.785 4.027-11.634 8.927l-14.374 11.724c-2.056 1.55-3.74 3.215-3.743 3.702s11.35 9.183 25.23 19.322 25.235 18.82 25.235 19.3c0 1.258-5.325 4.284-8.64 4.9-3.328.63-3.522 1.388-1.193 4.66 3.206 4.502 4.605 10.715 4.33 19.227l-.258 8-37.665-23.33-40.246-24.724-2.58-1.395.554 18.487c.305 10.167.264 18.956-.1 19.53-.895 1.447-13.155-.92-16.13-3.114-1.218-.9-2.813-3.467-3.545-5.705l-1.33-4.07-3.3 3.042c-3.614 3.32-8.048 4.13-9.002 1.64-.296-.77-.54-7.252-.542-14.402a684.85 684.85 0 0 0-.584-25.7l-.58-12.7-3.166.594c-5.95 1.116-6.076 1.33-6.677 11.278-.302 5.004-.84 26.724-1.194 48.266l-.645 39.166-5.317-2.578c-2.925-1.418-7.7-4.752-10.635-7.4l-5.317-4.83-3.836 2.22c-2.1 1.22-3.948 2.084-4.084 1.92s-.665-5.013-1.174-10.775-1.156-10.704-1.435-10.983-4.283.564-8.898 1.873c-7.074 2.008-10.103 2.38-19.297 2.365-18.28-.026-31.623-4.786-42.12-15.027-6.2-6.038-8.995-10.617-13.215-21.576-1.74-4.517-3.377-8.412-3.637-8.656s-.246 9.042.034 20.636l.508 21.078-3.396-2.7c-4.046-3.205-4.274-3.225-8.96-.782-4.53 2.36-10.286 3.476-12.87 2.494-2.175-.827-6.54-7.25-22.542-33.174-14.04-22.744-25.297-40.012-26.614-40.827-1.073-.663-.935 5.87.982 46.558l.826 24.007c.012 6.353-.113 6.783-2.245 7.755-5.05 2.3-13.78.683-18.45-3.418l-2.935-2.578-1.93 2.612c-2.335 3.158-5.8 5.05-10.668 5.83-3.396.543-3.64.44-3.68-1.526-.1-5.387-3.313-36.333-3.813-36.833-.3-.3-2.188-.078-4.173.517-3.268.98-3.565 1.307-3.137 3.465.26 1.3.906 4.976 1.436 8.145l4.956 27.754c2.197 12.097 3.87 23.054 3.72 24.348-.234 2-.848 2.467-4.196 3.125-6.142 1.208-12.84-.06-20.063-3.798-6.457-3.342-6.514-3.353-8.098-1.602-1.84 2.034-7.555 5.12-9.483 5.12-.722 0-1.526-.345-1.786-.766s-2.875-10.9-5.8-23.264c-5.745-24.225-8.483-34.106-9.648-34.826-.977-.604-33.994 7.33-35.133 8.44-.5.48-1.497 13.12-2.253 28.263-.752 15.068-1.63 27.66-1.95 27.98-.52.52-13.33 3.816-15.127 3.892-.395.016-.45-1.765-.12-3.958.753-5.02-.2-5.1-5.216-.485-4.3 3.964-6.546 4.975-14.75 6.643-12.985 2.64-12.428 2.65-12.428-.196h0zM86.378 151.9c6-1.73 11.236-3.455 11.614-3.833.833-.833-11.78-63.35-13.035-64.603-.625-.625-1.34 2.82-3.64 17.52l-7.494 53.252c0 1.207.697 1.077 12.557-2.336h0zm359.97-36.93c5.505-2.85 9.13-5.645 15.23-11.743 8.5-8.5 11.936-14.08 11.936-19.368 0-3.92-1.732-5.034-8.823-5.677-5.86-.53-11.858.984-21.766 5.5l-6.632 3.022v16.003c0 14.067.17 16.003 1.415 16.003.78 0 4.667-1.683 8.64-3.74h0zm259.647 141.563c-3.658-1.293-10.294-7.132-10.294-9.057 0-.7 1.076-1.15 2.687-1.15 1.478 0 4.17-.638 5.982-1.417l3.295-1.417-4.242-1.113c-2.333-.612-5.723-2.286-7.533-3.72-3.53-2.796-9.052-12.518-9.052-15.94 0-2.235-.17-2.17 10.192-3.933 9.242-1.573 9.177-1.5 8.23-8.1-1.44-10.007-15.643-94.964-16.675-99.736-.552-2.554-1.408-4.895-1.903-5.2s-2.04.3-3.437 1.32-2.803 1.877-3.127 1.877c-2.438 0-29.615-23.52-29.615-25.632 0-.33 2.35-1.086 5.22-1.68s5.712-1.67 6.312-2.393c.945-1.14.312-1.314-4.747-1.314-5.24 0-6.153-.276-8.9-2.696-2.955-2.595-7.626-9.54-7.626-11.34 0-.815 19.8-9.5 42.075-18.5 21.78-8.774 40.95-14.5 59.4-17.704 6.652-1.16 13.393-1.522 27.03-1.453 27.14.137 35.078 2.24 48.38 12.8 18.18 14.446 23.07 33.275 14.54 55.982-2.92 7.77-9.36 16.726-20.775 28.887-5.667 6.038-10.164 11.396-9.994 11.908s3.14 1.626 6.596 2.475c16.854 4.143 24.914 13.138 25.765 28.754.482 8.852-1.856 18.913-6.65 28.617-8.575 17.354-36.8 39.17-65.476 50.587-19.557 7.8-47.867 13.007-55.648 10.256h0zm47.507-52.17c6.626-2.95 23.292-14.308 25.458-17.35 3.9-5.462 1-12.912-5.868-15.182-5.522-1.823-14.355-.62-21.952 2.987-5.846 2.776-6.696 3.478-6.696 5.522 0 3.304 1.837 23.66 2.256 24.997.484 1.545 1.454 1.406 6.802-.974h0zm-3.734-71.677c9.288-6.047 20.562-17.48 23.875-24.2 3.782-7.683 4.405-13.818 1.964-19.337-2.577-5.825-5.813-7.08-16.96-6.578-7.092.32-9.4.82-14.424 3.14-7.086 3.27-6.64.34-4.22 27.702l1.773 21.477c.014 2.363 1.706 1.898 7.992-2.196zm283.592 96.66c0-1.18.8-3.695 1.76-5.593s1.66-3.478 1.55-3.5c-3.57-1.034-7.47-4.3-9.6-8.002-1.4-2.456-2.56-4.907-2.57-5.447-.01-.55 2.35-1.227 5.33-1.54 2.94-.307 6.58-1.2 8.1-1.984l2.76-1.426-.5-5.95c-.6-7.283-10.18-67.253-11.08-69.482-.6-1.47-.97-1.386-4.6 1.045-2.17 1.455-4.2 2.48-4.54 2.28-1.86-1.15-3.56-6.976-3.04-10.42l.56-3.7-6.3 6.63-2.43-4.4c-1.34-2.425-2.83-4.406-3.32-4.4s-3.28 2.795-6.203 6.2c-4.878 5.677-14.823 14.86-24.105 22.26-2.046 1.63-3.74 3.587-3.766 4.345-.05 1.533 12.57 10.185 22.996 15.763 3.656 1.956 13.228 6.4 21.268 9.876s14.97 6.664 15.4 7.085c.43.432-1.46 2.025-4.36 3.663-4.44 2.502-4.92 3.025-3.58 3.835 4.7 2.823 4.72 2.956 1.4 5.846-12.07 10.536-17.13 14.17-18.93 13.6-8.25-2.618-34.03-15.547-52.408-26.282l-11.425-6.66c-.46-.26-.52 7.404-.138 18.397.712 20.604 1.03 19.53-4.552 15.404-1.55-1.146-2.992-2.084-3.202-2.084s-1.07 1.8-1.9 4.003c-2.467 6.458-10.473 11.063-19.236 11.063-3.12 0-3.405-.203-3.414-2.437-.008-1.34-1.382-23.176-3.06-48.522l-3.668-55.64c-.34-5.256-.94-9.756-1.334-10s-2.296.982-4.225 2.724c-3.8 3.434-3.8 3.438-5.4-1.778-2-6.403-4.514-9.178-5.652-6.212-.853 2.223-2.2 17.642-5.417 62.488L876.883 209l-.544 5.653-4.516-.535c-6-.712-13.507-4.466-15.433-7.726-1.82-3.08-2.374-3.166-5.344-.83-1.24.975-3.355 1.772-4.7 1.772H843.9l-.525-12.63c-.288-6.945-.926-38.55-1.417-70.234l-1.43-73.336-.536-15.73 3.413.04c4.012.046 9.527 1.864 11.748 3.874 1.454 1.316 1.97 1.218 6.852-1.3 6.298-3.248 15.624-4.9 22.723-4.004l5.072.634-.523 6.36-1.17 12.343c-.355 3.3-.5 5.982-.322 5.982s3.426-1.8 7.216-3.975c10.28-5.93 25.96-13.172 36.45-16.835l9.306-3.25 19.94.372c21.9.408 25.845 1.086 36.298 6.222 7.017 3.45 15.767 11.82 18.477 17.683 1.07 2.314 2.32 6.843 2.78 10.064s1 6.03 1.22 6.243c.2.212 5-1 10.62-2.717 26.35-7.988 36.52-9.7 57.78-9.772 24.62-.073 33.16 2.218 47.18 12.655l7.3 5.43 4.34-6.4c8.38-12.394 15.76-18.1 47.17-36.52l23.4-13.718 1.24 2.86c2.77 6.374 1.47 11.955-4.84 20.722-2.15 2.984-.4 3.052 6.26.24l6.4-2.593c.96 0 6.07 12.382 9.46 22.905 4.3 13.355 4.9 16.975 2.86 16.975-.68 0-4.77 1.022-9.08 2.27-9.05 2.614-22.07 8.612-27.65 12.74-7.1 5.233-9.1 14.107-4.6 20.4 1.06 1.492 6.65 6.7 12.43 11.55 16.25 13.68 20.13 19.477 21 31.314.78 10.823-2.87 22.296-9.72 30.495-6.78 8.115-22.62 19.782-41.1 30.292l-8.13 4.618-2.95-1.508c-1.62-.83-7.04-5.52-12.04-10.422l-9.08-8.913 2.37-2.48c1.3-1.364 2.2-2.596 2-2.74s-1.98-.796-3.93-1.45c-7.66-2.572-7.5-3.915.67-6.336 6.53-1.932 16.54-6.548 21.44-9.894 12.6-8.602 18.52-21.837 12.54-28.077-2.24-2.336-26.46-19.05-29-20.022-.85-.322-1.96 1.714-3.76 6.86-5.03 14.37-9.42 21.633-19.75 32.675-18.87 20.178-40.65 36.42-59.18 44.135-7.54 3.137-26.78 8.604-33.36 9.476-4.17.554-4.35.5-4.35-1.564h0zm45.25-47.752c8.1-5.202 16.7-16.22 23.02-29.47 4.36-9.146 6.17-16.165 6.17-23.882 0-10.18-3.38-15.716-10.96-17.97-6.43-1.907-12.25-1.624-21.7 1.055l-8.34 2.368.5 5.83c.28 3.206 1.36 18.6 2.4 34.2l2.23 29.467c.53 1.714 2.1 1.34 6.66-1.587zM949.938 116.87c6.256-4.177 12.635-11.105 15.326-16.646 1.1-2.264 2.054-6.36 2.307-9.897.398-5.56.256-6.2-1.8-8.265-4.35-4.35-14.2-3.885-21.984 1.04l-3.844 2.43.2 12.82c.278 17.73.837 22.127 2.817 22.127.863 0 4.002-1.625 6.976-3.6h0z"/></svg>